<?xml version="1.0" encoding="UTF-8"?>
<svg width="220px" height="220px" viewBox="0 0 220 220" version="1.1" xmlns="http://www.w3.org/2000/svg" xmlns:xlink="http://www.w3.org/1999/xlink">
    <!-- Generator: Sketch 51.1 (57501) - http://www.bohemiancoding.com/sketch -->
    <title>Artboard</title>
    <desc>Created with Sketch.</desc>
    <defs></defs>
    <g id="Artboard" stroke="none" stroke-width="1" fill="none" fill-rule="evenodd">
        <g id="Virdhi-Logo" transform="translate(22.000000, 10.000000)" fill="#2F49FF" fill-rule="nonzero">
            <path d="M137.4433,69.9217746 L88.701449,154.690211 C87.853765,156.008831 87.00608,155.820457 86.158396,154.125088 L65.955252,119.228749 C65.2959419,118.004316 65.3901291,117.109538 66.2378134,116.544415 C71.606481,113.247864 75.138499,111.151258 76.833868,110.254597 C78.529237,109.357935 79.75367,109.523704 80.507167,110.751905 L86.440957,120.358994 L111.871488,76.5619688 C112.624986,75.1491615 113.661044,74.7724129 114.979664,75.431723 C116.298285,76.0910331 116.439565,77.2212789 115.403507,78.8224605 L87.995045,125.868943 C86.770612,127.375937 85.54618,127.28175 84.321747,125.586381 L77.822833,114.849046 L70.900077,118.946187 L87.571203,147.626175 L131.933352,71.3345819 L99.014942,71.3345819 C99.014942,76.985811 99.014942,80.423642 99.014942,81.648075 C99.014942,82.872508 98.449819,83.626005 97.319573,83.908567 C85.451992,83.908567 79.09436,83.908567 78.246675,83.908567 C77.398991,83.908567 76.928055,83.249257 76.833868,81.930636 L76.833868,71.3345819 L43.0677741,71.3345819 L59.4563385,100.438412 L67.085498,95.776148 L56.9132854,78.3986183 C56.2539754,76.985811 56.4894432,75.9968459 57.6196891,75.431723 C58.7499349,74.8666001 59.7389,75.0549744 60.5865843,75.9968459 C67.179685,87.487678 70.947171,93.892405 71.889043,95.211025 C72.830914,96.529645 72.64254,97.612797 71.32392,98.460482 C65.5785034,102.227968 61.9052045,104.535553 60.3040229,105.383237 C58.7028413,106.230922 57.3842212,105.901267 56.3481625,104.394272 C44.0096456,82.260291 37.416545,70.4868975 36.5688607,69.0740903 C35.7211763,67.661283 36.0508313,66.9548794 37.5578258,66.9548794 L78.953079,66.8135986 C80.271699,66.7194115 80.883916,67.4258151 80.789728,68.9328095 L80.789728,79.3875834 L94.917801,79.2463026 C94.917801,75.2904423 94.917801,72.1822663 94.917801,69.9217746 C94.917801,67.661283 95.906766,66.5781307 97.884696,66.6723179 C97.884696,66.6723179 110.411588,66.7194115 135.46537,66.8135986 C138.196797,66.7194115 138.856107,67.7554701 137.4433,69.9217746 Z M0,93.187919 C0,66.5659955 0,52.6957494 0,51.5771812 C0,50.458613 0.5592841,49.4519016 1.6778523,48.557047 C55.8165548,17.3266219 83.557047,1.3310962 84.899329,0.5704698 C86.241611,-0.1901566 87.695749,-0.1901566 89.261745,0.5704698 C144.295302,32.2035794 172.259508,48.310962 173.154362,48.8926174 C174.049217,49.4742729 174.496644,50.5928412 174.496644,52.2483221 L174.496644,93.187919 C165.548098,90.503356 161.073826,86.068389 161.073826,79.8830203 C161.073826,68.1742098 161.073826,61.6472075 161.073826,60.3020134 C161.073826,58.5123043 160.402685,57.2818792 159.060403,56.6107383 C114.765101,31.196868 91.722595,17.9977629 89.932886,17.0134228 C88.143177,16.0290828 86.353468,16.0290828 84.563758,17.0134228 C38.9261745,43.098434 15.6599553,56.409396 14.7651007,56.9463087 C13.8702461,57.4832215 13.4228188,58.1543624 13.4228188,58.9597315 C13.4228188,66.5659955 13.4228188,73.5011186 13.4228188,79.7651007 C13.4228188,86.029083 8.9485459,90.503356 0,93.187919 Z M13.4228188,106.711409 L13.4228188,141.040268 C13.4228188,141.845638 13.8702461,142.516779 14.7651007,143.053691 C15.6599553,143.590604 38.9261745,156.901566 84.563758,182.986577 C86.353468,183.970917 88.143177,183.970917 89.932886,182.986577 C91.722595,182.002237 114.765101,168.803132 159.060403,143.389262 C160.402685,142.718121 161.073826,141.487696 161.073826,139.697987 C161.073826,138.80119 161.073826,127.805665 161.073826,106.711409 C170.022371,109.395973 174.496644,113.870246 174.496644,120.134228 C174.496644,126.39821 174.496644,135.604027 174.496644,147.751678 C174.496644,149.407159 174.049217,150.525727 173.154362,151.107383 C172.259508,151.689038 144.295302,167.796421 89.261745,199.42953 C87.695749,200.190157 86.241611,200.190157 84.899329,199.42953 C83.557047,198.668904 55.8165548,182.673378 1.6778523,151.442953 C0.5592841,150.548098 0,149.541387 0,148.422819 C0,147.509419 0,138.093115 0,120.174089 C0,113.883533 4.4742729,109.395973 13.4228188,106.711409 Z" id="Combined-Shape"></path>
        </g>
    </g>
</svg>